<mxfile host="app.diagrams.net" agent="Mozilla/5.0 (Windows NT 10.0; Win64; x64) AppleWebKit/537.36 (KHTML, like Gecko) Chrome/121.0.0.0 Safari/537.36 SamanthaDoubao/1.32.12" version="26.2.9">
  <diagram id="R2lEEEUBdFMjLlhIrx00" name="Page-1">
    <mxGraphModel dx="1428" dy="748" grid="1" gridSize="10" guides="1" tooltips="1" connect="1" arrows="1" fold="1" page="1" pageScale="1" pageWidth="850" pageHeight="1100" math="0" shadow="0" extFonts="Permanent Marker^https://fonts.googleapis.com/css?family=Permanent+Marker">
      <root>
        <mxCell id="0" />
        <mxCell id="1" parent="0" />
        <mxCell id="Su-DI4oxbDsg7kpJFaRY-3" style="rounded=0;orthogonalLoop=1;jettySize=auto;html=1;exitX=0.5;exitY=1;exitDx=0;exitDy=0;entryX=0.5;entryY=0;entryDx=0;entryDy=0;" edge="1" parent="1" source="Su-DI4oxbDsg7kpJFaRY-1" target="Su-DI4oxbDsg7kpJFaRY-25">
          <mxGeometry relative="1" as="geometry">
            <mxPoint x="440" y="560" as="targetPoint" />
          </mxGeometry>
        </mxCell>
        <mxCell id="Su-DI4oxbDsg7kpJFaRY-4" style="rounded=0;orthogonalLoop=1;jettySize=auto;html=1;exitX=0.5;exitY=1;exitDx=0;exitDy=0;entryX=0.5;entryY=0;entryDx=0;entryDy=0;" edge="1" parent="1" source="Su-DI4oxbDsg7kpJFaRY-1" target="Su-DI4oxbDsg7kpJFaRY-23">
          <mxGeometry relative="1" as="geometry">
            <mxPoint x="255" y="560" as="targetPoint" />
          </mxGeometry>
        </mxCell>
        <mxCell id="Su-DI4oxbDsg7kpJFaRY-5" style="rounded=0;orthogonalLoop=1;jettySize=auto;html=1;exitX=0.5;exitY=1;exitDx=0;exitDy=0;entryX=0.5;entryY=0;entryDx=0;entryDy=0;" edge="1" parent="1" source="Su-DI4oxbDsg7kpJFaRY-1" target="Su-DI4oxbDsg7kpJFaRY-24">
          <mxGeometry relative="1" as="geometry">
            <mxPoint x="400" y="560" as="targetPoint" />
          </mxGeometry>
        </mxCell>
        <mxCell id="Su-DI4oxbDsg7kpJFaRY-6" style="rounded=0;orthogonalLoop=1;jettySize=auto;html=1;exitX=0.5;exitY=1;exitDx=0;exitDy=0;entryX=0.5;entryY=0;entryDx=0;entryDy=0;" edge="1" parent="1" source="Su-DI4oxbDsg7kpJFaRY-1" target="Su-DI4oxbDsg7kpJFaRY-22">
          <mxGeometry relative="1" as="geometry">
            <mxPoint x="120" y="560" as="targetPoint" />
          </mxGeometry>
        </mxCell>
        <mxCell id="Su-DI4oxbDsg7kpJFaRY-1" value="&lt;span style=&quot;color: rgb(25, 25, 25); font-family: &amp;quot;Microsoft YaHei&amp;quot;; font-size: 13.3333px; white-space-collapse: preserve; background-color: rgb(255, 255, 255);&quot;&gt;地图数据&lt;/span&gt;" style="rounded=0;whiteSpace=wrap;html=1;" vertex="1" parent="1">
          <mxGeometry x="260" y="400" width="120" height="60" as="geometry" />
        </mxCell>
        <mxCell id="Su-DI4oxbDsg7kpJFaRY-22" value="&lt;div&gt;&lt;span style=&quot;color: rgb(25, 25, 25); font-family: &amp;quot;Microsoft YaHei&amp;quot;; font-size: 13.3333px; white-space-collapse: preserve; background-color: rgb(255, 255, 255);&quot;&gt;group_name&lt;/span&gt;&lt;br&gt;&lt;/div&gt;" style="ellipse;whiteSpace=wrap;html=1;align=center;" vertex="1" parent="1">
          <mxGeometry x="110" y="570" width="100" height="40" as="geometry" />
        </mxCell>
        <mxCell id="Su-DI4oxbDsg7kpJFaRY-23" value="&lt;span style=&quot;color: rgb(25, 25, 25); font-family: &amp;quot;Microsoft YaHei&amp;quot;; font-size: 13.3333px; white-space-collapse: preserve; background-color: rgb(255, 255, 255);&quot;&gt;city_name&lt;/span&gt;" style="ellipse;whiteSpace=wrap;html=1;align=center;" vertex="1" parent="1">
          <mxGeometry x="220" y="570" width="100" height="40" as="geometry" />
        </mxCell>
        <mxCell id="Su-DI4oxbDsg7kpJFaRY-24" value="&lt;span style=&quot;color: rgb(25, 25, 25); font-family: &amp;quot;Microsoft YaHei&amp;quot;; font-size: 13.3333px; white-space-collapse: preserve; background-color: rgb(255, 255, 255);&quot;&gt;longitude&lt;/span&gt;" style="ellipse;whiteSpace=wrap;html=1;align=center;" vertex="1" parent="1">
          <mxGeometry x="325" y="570" width="100" height="40" as="geometry" />
        </mxCell>
        <mxCell id="Su-DI4oxbDsg7kpJFaRY-25" value="&lt;span style=&quot;color: rgb(25, 25, 25); font-family: &amp;quot;Microsoft YaHei&amp;quot;; font-size: 13.3333px; white-space-collapse: preserve; background-color: rgb(255, 255, 255);&quot;&gt;latitude&lt;/span&gt;" style="ellipse;whiteSpace=wrap;html=1;align=center;" vertex="1" parent="1">
          <mxGeometry x="430" y="570" width="100" height="40" as="geometry" />
        </mxCell>
      </root>
    </mxGraphModel>
  </diagram>
</mxfile>
